# xmcd CD database file
#
# Track frame offsets:
#	150
#	18071
#	41098
#	63989
#	79490
#	99590
#	115837
#	133011
#	153072
#	166914
#	191790
#	212300
#	226142
#	246867
#	270448
#	290893
#
# Disc length: 4086 seconds
#
# Revision: 1
# Processed by: cddbd v1.5.2PL0 Copyright (c) Steve Scherf et al.
# Submitted via: CDex 1.70beta2
#
DISCID=d50ff410
DTITLE=J J Vinten Band - Quirky
DYEAR=1900
DGENRE=Jazz
TTITLE0=Sultry Serenade
TTITLE1=Struttin' With Some Barbeque
TTITLE2=Gee Baby, Ain't I Good To You
TTITLE3=Quirky
TTITLE4=I Believe In Miracles
TTITLE5=I Wish I Knew How It Would Feel To Be Free
TTITLE6=Is You Is Or Is You Ain't My Baby
TTITLE7=I Got It Bad
TTITLE8=JJ's Boogie
TTITLE9=I Can't Get Started
TTITLE10=The Man I Love
TTITLE11=West End Blues
TTITLE12=It Don't Mean A Thing
TTITLE13=In A Sentimental Mood
TTITLE14=Sweet Substitute
TTITLE15=Swing That Music
EXTD=
EXTT0=
EXTT1=
EXTT2=
EXTT3=
EXTT4=
EXTT5=
EXTT6=
EXTT7=
EXTT8=
EXTT9=
EXTT10=
EXTT11=
EXTT12=
EXTT13=
EXTT14=
EXTT15=
PLAYORDER=
